<?xml version="1.0" encoding="UTF-8" standalone="no"?>
<svg
   class="svg-snoweb svg-theme-light"
   x="0"
   y="0"
   width="100%"
   height="100%"
   viewBox="0 0 100 100"
   preserveAspectRatio="xMidYMid meet"
   version="1.1"
   id="svg1"
   sodipodi:docname="circlebg2.svg"
   xml:space="preserve"
   inkscape:version="1.3 (0e150ed6c4, 2023-07-21)"
   xmlns:inkscape="http://www.inkscape.org/namespaces/inkscape"
   xmlns:sodipodi="http://sodipodi.sourceforge.net/DTD/sodipodi-0.dtd"
   xmlns="http://www.w3.org/2000/svg"
   xmlns:svg="http://www.w3.org/2000/svg"><sodipodi:namedview
     id="namedview1"
     pagecolor="#ffffff"
     bordercolor="#000000"
     borderopacity="0.25"
     inkscape:showpageshadow="2"
     inkscape:pageopacity="0.0"
     inkscape:pagecheckerboard="0"
     inkscape:deskcolor="#d1d1d1"
     inkscape:zoom="8.11"
     inkscape:cx="50.308261"
     inkscape:cy="36.868064"
     inkscape:window-width="1920"
     inkscape:window-height="1046"
     inkscape:window-x="-11"
     inkscape:window-y="-11"
     inkscape:window-maximized="1"
     inkscape:current-layer="svg1" /><defs
     id="defs1"><style
       id="style1">&#10;        &#10;            &#10;            &#10;            &#10;        &#10;&#10;        .svg-fill-primary {&#10;            fill: #1226AA;&#10;        }&#10;&#10;        .svg-fill-secondary {&#10;            fill: #c1c1c1;&#10;        }&#10;&#10;        .svg-fill-tertiary {&#10;            fill: #E5E7EB;&#10;        }&#10;&#10;        .svg-stroke-primary {&#10;            stroke: #1226AA;&#10;        }&#10;&#10;        .svg-stroke-secondary {&#10;            stroke: #c1c1c1;&#10;        }&#10;&#10;        .svg-stroke-tertiary {&#10;            stroke: #E5E7EB;&#10;        }&#10;    </style></defs><ellipse
     class="svg-fill-primary"
     cx="100.18496"
     cy="73.427864"
     id="circle1"
     rx="9.9260168"
     ry="9.1861897"
     style="stroke-width:0.190979" /><g
     style="fill:none"
     id="g1"
     transform="matrix(0.05363614,0,0,0.08823613,88.71778,73.650556)"><path
       d="m 56.8241,117.927 c -3.5381,0 -7.1253,-0.245 -10.7616,-0.737 C 30.7309,115.126 15.1044,108.542 1.00133,98.1731 -0.0797426,97.3868 -0.325459,95.8144 0.460777,94.7333 1.24701,93.6522 2.81948,93.4065 3.90056,94.1928 17.3648,104.07 32.2051,110.311 46.7504,112.276 c 13.4643,1.818 26.3881,0 37.2971,-5.258 7.2727,-3.489 13.2677,-8.3535 17.8865,-14.2503 C 95.5462,92.5711 89.1089,91.7849 82.6716,90.3598 72.0574,88.0011 63.7528,79.9913 61.0992,69.4754 58.3965,59.0087 61.8363,48.0505 69.9444,40.9253 c 8.7469,-7.6658 20.6878,-9.2875 31.2036,-4.2752 10.467,5.0122 16.658,15.2825 16.167,26.8303 -0.344,8.796 -2.506,16.9532 -6.241,24.1276 21.622,-1.4742 42.064,-10.5159 58.477,-26.2897 9.041,-8.6978 16.167,-18.8697 20.638,-29.4348 4.374,-10.3685 5.848,-20.393 4.325,-28.99241 -0.246,-1.32677 0.638,-2.604401 1.965,-2.8501 1.327,-0.245699 2.605,0.638817 2.85,1.96559 3.489,19.41022 -6.83,44.12752 -26.388,62.89882 -18.132,17.3955 -40.884,27.0269 -64.913,27.8623 -5.258,7.8623 -12.6784,14.2503 -21.8675,18.6733 -8.8452,4.275 -18.8205,6.486 -29.3364,6.486 z M 88.6175,38.7631 c -5.5528,0 -11.0073,2.0147 -15.479,5.8968 -6.8305,5.995 -9.5823,14.8402 -7.3219,23.6362 2.2605,8.8452 8.9434,15.3316 17.8869,17.2972 7.2235,1.5725 14.4471,2.3587 21.5725,2.3095 4.275,-7.1252 6.732,-15.4298 7.076,-24.5207 0.393,-9.5822 -4.717,-18.0834 -13.366,-22.2111 -3.3415,-1.6217 -6.8796,-2.4079 -10.3685,-2.4079 z"
       fill="#353e44"
       id="path1" /></g></svg>
