<svg width="144" height="23" viewBox="0 0 144 23" fill="none" xmlns="http://www.w3.org/2000/svg">
<g clip-path="url(#clip0_1613_54701)">
<mask id="mask0_1613_54701" style="mask-type:luminance" maskUnits="userSpaceOnUse" x="-11" y="-11" width="166" height="45">
<path d="M-10.7949 -10.0117H154.856V33.9917H-10.7949V-10.0117Z" fill="white"/>
</mask>
<g mask="url(#mask0_1613_54701)">
<path d="M136.582 10.6538V13.6487H138.687V16.62C138.693 16.8855 138.679 17.1719 138.633 17.401C138.55 17.9553 138.023 18.899 136.529 18.899C135.044 18.899 134.527 17.9553 134.437 17.401C134.4 17.1719 134.383 16.8855 134.383 16.62V7.23504C134.383 6.90307 134.406 6.53972 134.476 6.26471C134.578 5.76452 135.022 4.77811 136.518 4.77811C138.089 4.77811 138.481 5.81805 138.571 6.26471C138.63 6.56055 138.633 7.05679 138.633 7.05679V8.1964H143.805V7.52271C143.805 7.52271 143.828 6.81975 143.765 6.16372C143.377 2.31169 140.203 1.09299 136.564 1.09299C132.918 1.09299 129.808 2.32303 129.355 6.16372C129.314 6.51494 129.252 7.14671 129.252 7.52271V16.156C129.252 16.532 129.264 16.8231 129.334 17.5102C129.671 21.2562 132.918 22.5841 136.549 22.5841C140.203 22.5841 143.427 21.2562 143.77 17.5102C143.831 16.8231 143.838 16.532 143.846 16.156V10.6538H136.582ZM100.924 1.64539H95.7305V16.8365C95.7387 17.1012 95.7305 17.3987 95.6849 17.6167C95.5766 18.1267 95.1444 19.1081 93.7116 19.1081C92.2972 19.1081 91.8537 18.1267 91.7535 17.6167C91.7016 17.3987 91.695 17.1012 91.7016 16.8365V1.64539H86.5098V16.3651C86.5032 16.7445 86.533 17.5197 86.5554 17.7227C86.9138 21.5584 89.9368 22.8037 93.7116 22.8037C97.4937 22.8037 100.515 21.5584 100.88 17.7227C100.909 17.5197 100.946 16.7445 100.924 16.3651V1.64539ZM53.2066 1.64539L50.616 17.6969L48.027 1.64539H39.6497L39.2055 22.1799H44.3376L44.4766 3.17048L48.0077 22.1799H53.2148L56.7491 3.17048L56.8886 22.1799H62.0337L61.5743 1.64539H53.2066ZM22.1902 1.64539L18.3865 22.1799H23.9334L26.7998 3.17048L29.5974 22.1799H35.1058L31.3179 1.64539H22.1902ZM119.074 18.1781L114.238 1.64539H106.618V21.9658H111.659L111.366 4.90415L116.559 21.9658H123.868V1.64539H118.794L119.074 18.1781ZM72.4459 6.98956C72.3547 6.58402 72.3811 6.15318 72.4283 5.928C72.5751 5.27066 73.0168 4.55372 74.2893 4.55372C75.4753 4.55372 76.1706 5.29307 76.1706 6.40261V7.65824H81.2332V6.22701C81.2332 1.80254 77.2664 1.10749 74.3945 1.10749C70.7774 1.10749 67.8234 2.29983 67.284 5.62899C67.1413 6.53498 67.106 7.33919 67.333 8.36541C68.2126 12.5164 75.4392 13.7207 76.4881 16.3458C76.6732 16.8431 76.6202 17.4772 76.5258 17.8509C76.3686 18.534 75.909 19.2212 74.5466 19.2212C73.2689 19.2212 72.4997 18.4866 72.4997 17.3794L72.4981 15.4087H67.049V16.9752C67.049 21.5144 70.6044 22.8839 74.4338 22.8839C78.1012 22.8839 81.1303 21.6306 81.6163 18.2335C81.848 16.4782 81.6732 15.3349 81.5802 14.9043C80.7311 10.6467 73.0289 9.36606 72.4459 6.98956ZM5.66413 6.93919C5.56472 6.52522 5.58792 6.08831 5.64329 5.8605C5.78357 5.20632 6.22786 4.47673 7.52277 4.47673C8.72381 4.47673 9.43098 5.22319 9.43098 6.34171V7.61262H14.5529V6.17005C14.5529 1.70313 10.5255 0.991207 7.62218 0.991207C3.97476 0.991207 0.994443 2.20201 0.449162 5.55516C0.299922 6.47565 0.274337 7.2854 0.490024 8.32296C1.37914 12.5212 8.67714 13.7352 9.73896 16.3917C9.93777 16.8855 9.87765 17.5197 9.77904 17.9078C9.61055 18.5981 9.14727 19.295 7.77353 19.295C6.49075 19.295 5.72345 18.5478 5.72345 17.4253L5.71633 15.4493H0.206055V17.0195C0.206055 21.6106 3.81181 22.9912 7.67096 22.9912C11.3811 22.9912 14.4279 21.7269 14.9249 18.2904C15.172 16.519 14.9866 15.3663 14.9033 14.9291C14.0366 10.6193 6.24869 9.34286 5.66413 6.93919Z" fill="#1428A0"/>
</g>
</g>
<defs>
<clipPath id="clip0_1613_54701">
<rect width="143.64" height="22" fill="white" transform="translate(0.206055 0.991211)"/>
</clipPath>
</defs>
</svg>
